<?xml version="1.0" encoding="UTF-8"?>
<svg xmlns="http://www.w3.org/2000/svg" xmlns:xlink="http://www.w3.org/1999/xlink" viewBox="0 0 48 48" width="48px" height="48px">
<g id="surface19110130">
<path style=" stroke:none;fill-rule:nonzero;fill:rgb(0%,47.450981%,41.960785%);fill-opacity:1;" d="M 6.25 2 C 4.4375 2 3.007812 2.960938 2.328125 4.625 C 2.113281 5.140625 2.007812 5.683594 2.003906 6.246094 C 2 8.109375 3.203125 9.621094 3.921875 10.523438 C 4.046875 10.679688 4.160156 10.820312 4.28125 10.992188 L 4.605469 11.421875 C 4.925781 11.84375 5.292969 12.324219 5.410156 12.5625 C 5.449219 12.671875 5.5 12.867188 5.566406 13.109375 C 5.878906 14.238281 6.464844 16.339844 7.398438 17.9375 C 7.773438 18.582031 8.304688 19.390625 8.683594 19.960938 C 8.429688 21.234375 8 23.574219 8 25 C 8 27.5 8.519531 29.507812 9.648438 31.34375 C 10.066406 32 11.34375 34 13.5 34 C 14.265625 34 15.539062 33.699219 15.882812 31.800781 C 17.414062 33.773438 20 36.25 24 38 C 24 38 16.5 29.25 15.183594 23.796875 C 15.183594 23.796875 13.75 25.25 12.53125 28.21875 C 12.167969 27.304688 12 26.269531 12 25 C 12 23.746094 12.550781 20.941406 12.765625 19.96875 L 12.953125 19.121094 L 12.460938 18.40625 C 12.453125 18.390625 11.445312 16.9375 10.855469 15.925781 C 10.183594 14.773438 9.6875 12.992188 9.421875 12.035156 C 9.292969 11.570312 9.191406 11.230469 9.09375 11.003906 C 8.742188 10.246094 8.230469 9.582031 7.78125 8.992188 L 7.53125 8.660156 C 7.40625 8.476562 7.238281 8.265625 7.050781 8.03125 C 6.683594 7.570312 6.003906 6.714844 6.023438 6.164062 L 6.246094 6.007812 L 6.25 6 C 7.839844 6 9.886719 7.128906 10.660156 7.554688 C 10.914062 7.691406 11.097656 7.789062 11.195312 7.832031 L 11.542969 7.984375 L 12.226562 8.007812 C 13.121094 8.027344 15.835938 8.089844 17.757812 8.859375 C 21.261719 10.257812 23.195312 11.660156 25.164062 14.21875 C 29.8125 20.261719 31.527344 28.089844 31.542969 28.167969 L 31.792969 29.296875 L 32.886719 29.652344 C 32.925781 29.667969 35.984375 30.6875 38.839844 33.363281 C 35.25 34.25 34 36 34 36 C 34 36 34.953125 37.855469 39.5 40.75 C 42.25 42.5 43.75 43.75 46 46 C 46 46 43.75 41 40.609375 37.015625 C 43 36.25 45.941406 35.851562 45.941406 35.851562 L 44.121094 33.328125 C 41.125 29.175781 37.105469 27.078125 35.195312 26.261719 C 34.53125 23.730469 32.527344 17.230469 28.335938 11.78125 C 25.9375 8.664062 23.386719 6.796875 19.242188 5.140625 C 16.789062 4.160156 13.835938 4.042969 12.523438 4.011719 C 11.375 3.378906 8.816406 2 6.25 2 Z M 14.375 10 C 14.375 10 13.5 10 12.5 10.25 L 15.25 13.996094 C 16 13 16 11.835938 16 11.835938 C 16 11.835938 15.5 10.5 14.375 10 Z M 14.375 10 "/>
</g>
</svg>
