<?xml version="1.0" encoding="UTF-8"?>
<svg xmlns="http://www.w3.org/2000/svg" xmlns:xlink="http://www.w3.org/1999/xlink" viewBox="0 0 100 100" width="100px" height="100px">
<g id="surface18485717">
<path style=" stroke:none;fill-rule:nonzero;fill:rgb(38.431373%,0%,100%);fill-opacity:1;" d="M 5.21875 29.257812 C 4.386719 29.328125 3.664062 29.996094 4.699219 31.113281 C 6.6875 32.238281 2.738281 33.0625 3.890625 33.816406 C 4.257812 34.609375 3.859375 35.492188 2.785156 35.632812 C 1.210938 35.769531 1.359375 37.921875 2.894531 36.792969 C 4.609375 36.25 3.191406 37.007812 2.382812 37.164062 C 0.570312 37.691406 -0.667969 39.503906 0.386719 41.160156 C 1.394531 43.441406 1.664062 45.984375 2.445312 48.355469 C 3.738281 52.003906 5.628906 55.476562 8.085938 58.472656 C 9.25 60.171875 10.957031 61.378906 12.558594 62.640625 C 14.132812 63.664062 15.890625 64.683594 17.683594 65.207031 C 20.871094 66.371094 24.289062 66.480469 27.636719 66.746094 C 29.675781 66.742188 31.722656 66.597656 33.738281 66.238281 C 35.550781 66.433594 36.855469 64.886719 38.492188 65.703125 C 39.484375 64.824219 40.929688 65.207031 41.921875 64.566406 C 42.65625 62.070312 39.402344 64.070312 38.371094 62.851562 C 37.25 64.167969 36.3125 62.707031 34.953125 63.117188 C 32.640625 63.234375 35.128906 62.082031 35.070312 61.023438 C 33.84375 60.082031 32.460938 62.3125 31.675781 62.914062 C 29.738281 62.5625 27.824219 62.015625 26.046875 61.175781 C 24.023438 60.121094 22.035156 58.867188 20.570312 57.089844 C 19.035156 55.273438 17.339844 53.4375 16.640625 51.105469 C 15.160156 47.253906 15.257812 43.085938 14.878906 39.042969 C 15.019531 36.304688 17.910156 39.335938 19.160156 38.347656 C 18.730469 36.925781 16.453125 36.476562 15.191406 35.910156 C 13.976562 35.824219 13.53125 34.738281 12.238281 34.648438 C 12.300781 33.128906 9.859375 33.964844 8.972656 32.882812 C 9.847656 30.625 6.078125 32.9375 6.371094 30.984375 C 6.984375 29.714844 6.050781 29.1875 5.21875 29.257812 Z M 5.230469 29.449219 C 5.425781 29.398438 5.65625 29.441406 5.882812 29.621094 C 6.96875 31.082031 3.890625 29.453125 4.957031 30.847656 C 4.308594 30.542969 4.640625 29.597656 5.230469 29.449219 Z M 83.828125 30.171875 C 83.695312 30.171875 83.34375 30.355469 82.777344 30.726562 C 82.078125 31.179688 81.339844 31.535156 80.566406 31.792969 C 80.082031 31.957031 79.84375 32.191406 79.84375 32.488281 C 79.84375 32.695312 80.011719 32.855469 80.351562 32.96875 C 81.074219 33.207031 81.546875 33.535156 81.773438 33.957031 C 81.9375 34.285156 82.023438 34.871094 82.023438 35.71875 L 82.023438 49.230469 C 82.023438 50.414062 81.738281 51.078125 81.171875 51.222656 C 80.542969 51.386719 80.226562 51.628906 80.226562 51.949219 C 80.226562 52.082031 80.238281 52.191406 80.257812 52.261719 C 80.308594 52.46875 80.644531 52.542969 81.261719 52.492188 C 83.714844 52.296875 85.457031 52.246094 86.488281 52.339844 C 86.816406 52.371094 87.019531 52.355469 87.097656 52.300781 C 87.175781 52.246094 87.214844 52.097656 87.214844 51.859375 C 87.214844 51.558594 86.972656 51.378906 86.488281 51.316406 C 85.703125 51.234375 85.203125 51.121094 84.988281 50.976562 C 84.679688 50.769531 84.511719 50.339844 84.492188 49.679688 C 84.472656 49.019531 84.464844 48.515625 84.464844 48.164062 C 84.464844 47.671875 84.707031 47.289062 85.191406 47.019531 C 85.625 46.710938 85.925781 46.554688 86.101562 46.554688 C 86.246094 46.554688 86.363281 46.640625 86.457031 46.804688 C 87.589844 48.722656 88.972656 50.554688 90.601562 52.308594 C 90.847656 52.566406 91.261719 52.636719 91.839844 52.523438 C 93.003906 52.429688 93.945312 52.382812 94.667969 52.371094 C 95.152344 52.351562 95.394531 52.15625 95.394531 51.796875 C 95.394531 51.507812 95.335938 51.332031 95.222656 51.265625 C 95.109375 51.199219 94.816406 51.164062 94.34375 51.164062 C 93.707031 51.164062 93.015625 50.851562 92.285156 50.222656 C 91.140625 49.226562 89.925781 47.742188 88.636719 45.785156 C 88.285156 45.238281 88.113281 44.894531 88.113281 44.75 C 88.113281 44.65625 88.152344 44.582031 88.234375 44.519531 C 89.347656 43.40625 90.394531 42.628906 91.375 42.183594 C 92.078125 41.855469 92.824219 41.671875 93.617188 41.640625 C 94.125 41.609375 94.375 41.421875 94.375 41.070312 C 94.375 40.699219 94.214844 40.507812 93.894531 40.496094 C 92.917969 40.496094 91.929688 40.492188 90.941406 40.480469 C 89.519531 40.46875 88.4375 40.417969 87.695312 40.3125 C 87.367188 40.261719 87.183594 40.417969 87.152344 40.777344 C 87.132812 41.136719 87.304688 41.335938 87.664062 41.378906 C 88.5 41.492188 88.914062 41.6875 88.914062 41.964844 C 88.914062 42.117188 88.789062 42.328125 88.542969 42.585938 C 87.296875 43.667969 86.246094 44.539062 85.390625 45.210938 C 85.070312 45.480469 84.832031 45.613281 84.679688 45.613281 C 84.535156 45.613281 84.460938 45.480469 84.460938 45.210938 L 84.433594 35.535156 C 84.433594 34.265625 84.4375 33.257812 84.449219 32.503906 C 84.460938 31.410156 84.464844 30.902344 84.464844 30.972656 C 84.464844 30.4375 84.25 30.171875 83.828125 30.171875 Z M 48.535156 30.28125 C 48.371094 30.28125 47.976562 30.464844 47.359375 30.835938 C 46.605469 31.308594 45.878906 31.660156 45.179688 31.886719 C 44.714844 32.039062 44.484375 32.277344 44.484375 32.585938 C 44.484375 32.792969 44.644531 32.949219 44.964844 33.0625 C 45.574219 33.277344 45.996094 33.585938 46.238281 33.976562 C 46.480469 34.367188 46.605469 34.980469 46.605469 35.816406 L 46.605469 49.804688 C 46.605469 50.648438 46.324219 51.15625 45.761719 51.328125 C 45.199219 51.5 44.921875 51.707031 44.921875 51.953125 C 44.921875 52.230469 44.96875 52.402344 45.066406 52.464844 C 45.164062 52.523438 45.425781 52.535156 45.847656 52.492188 C 47.953125 52.316406 49.710938 52.300781 51.132812 52.433594 C 51.597656 52.484375 51.828125 52.300781 51.828125 51.890625 C 51.828125 51.59375 51.597656 51.417969 51.132812 51.367188 C 50.378906 51.273438 49.847656 51.085938 49.539062 50.800781 C 49.230469 50.515625 49.074219 50.0625 49.074219 49.433594 L 49.015625 35.628906 C 49.003906 34.640625 49.011719 33.632812 49.042969 32.613281 C 49.085938 31.542969 49.105469 31.023438 49.105469 31.066406 C 49.105469 30.539062 48.917969 30.28125 48.535156 30.28125 Z M 27.976562 31.90625 C 27.863281 31.925781 27.78125 32.035156 27.730469 32.230469 C 27.628906 32.550781 27.785156 32.800781 28.195312 32.988281 C 28.851562 33.289062 29.304688 33.621094 29.546875 33.988281 C 29.789062 34.355469 29.910156 34.878906 29.910156 35.558594 L 29.910156 48.792969 C 29.910156 50.453125 29.40625 51.339844 28.394531 51.453125 C 27.953125 51.496094 27.730469 51.644531 27.730469 51.914062 C 27.730469 52.339844 27.949219 52.519531 28.394531 52.457031 C 29.980469 52.242188 31.996094 52.234375 34.4375 52.429688 C 35.28125 52.5 35.734375 52.367188 35.796875 52.027344 C 35.859375 51.636719 35.636719 51.414062 35.132812 51.363281 C 34.144531 51.238281 33.5 51.097656 33.203125 50.945312 C 32.820312 50.757812 32.628906 50.40625 32.628906 49.890625 L 32.628906 42.9375 C 32.628906 42.804688 32.71875 42.734375 32.90625 42.734375 C 34.542969 42.734375 35.730469 42.777344 36.457031 42.867188 C 37.183594 42.957031 37.679688 43.644531 37.949219 44.933594 C 38.023438 45.273438 38.199219 45.425781 38.488281 45.394531 C 38.839844 45.375 39.011719 45.234375 39 44.964844 C 38.894531 42.71875 38.988281 40.894531 39.277344 39.492188 C 39.328125 39.246094 39.179688 39.082031 38.828125 39.011719 C 38.417969 38.917969 38.175781 39.082031 38.105469 39.492188 C 37.992188 40.246094 37.875 40.710938 37.757812 40.890625 C 37.640625 41.070312 37.40625 41.179688 37.066406 41.222656 C 35.324219 41.335938 33.996094 41.398438 33.078125 41.410156 C 32.78125 41.421875 32.632812 41.308594 32.632812 41.070312 L 32.632812 34.066406 C 32.632812 33.828125 32.679688 33.671875 32.785156 33.601562 C 32.949219 33.488281 33.304688 33.433594 33.839844 33.433594 C 36.179688 33.433594 37.636719 33.476562 38.226562 33.570312 C 38.773438 33.640625 39.214844 33.855469 39.542969 34.207031 C 39.824219 34.503906 40.117188 35.027344 40.425781 35.78125 C 40.539062 36.058594 40.738281 36.199219 41.027344 36.199219 C 41.316406 36.199219 41.457031 36.039062 41.457031 35.71875 C 41.496094 34.089844 41.605469 32.933594 41.78125 32.242188 C 41.792969 32.199219 41.796875 32.160156 41.800781 32.109375 C 41.800781 31.957031 41.457031 31.894531 40.765625 31.9375 C 38.695312 32.0625 36.234375 32.125 33.390625 32.125 C 30.980469 32.125 29.445312 32.074219 28.796875 31.96875 C 28.351562 31.898438 28.082031 31.875 27.976562 31.90625 Z M 7.582031 32.273438 C 7.859375 32.332031 7.953125 32.496094 7.195312 32.597656 L 6.890625 32.582031 C 6.851562 32.261719 7.304688 32.214844 7.582031 32.273438 Z M 7.277344 33.339844 C 7.824219 33.578125 8.949219 33.691406 9.132812 34.292969 C 8.011719 33.707031 9.355469 34.996094 8.414062 34.972656 C 7.90625 34.980469 6.964844 33.886719 7.277344 33.339844 Z M 6.996094 34.246094 C 8.265625 35.210938 6.289062 34.246094 5.484375 34.851562 C 4.21875 34.980469 6.871094 34.136719 6.996094 34.246094 Z M 10.351562 34.824219 C 10.511719 34.867188 10.511719 35.023438 10.246094 35.34375 C 11.230469 36.519531 10.46875 36.125 9.796875 35.289062 C 10.386719 35.695312 9.929688 37.449219 9.027344 36.242188 C 8.386719 35.050781 7.980469 35.855469 8.660156 36.671875 C 7.996094 35.417969 6.066406 35.953125 4.65625 36.433594 C 3.746094 36.332031 7.019531 35.65625 7.375 35.496094 C 7.921875 35.507812 9.867188 34.691406 10.351562 34.824219 Z M 14.296875 36.152344 C 14.699219 36.148438 15.097656 36.164062 15.488281 36.195312 C 16.117188 36.929688 15.011719 38.171875 13.859375 38.253906 C 12.460938 38.777344 11.035156 38.90625 9.734375 39.078125 C 8.066406 38.867188 6.867188 40.367188 5.140625 40.558594 C 5.601562 39.707031 4.761719 40.265625 3.886719 40.222656 C 4.332031 41.941406 0.800781 39.765625 2.886719 39.351562 C 1.324219 38.796875 1.300781 40.4375 1.464844 41.375 L 1.359375 41.375 C -0.0742188 39.53125 1.519531 38.777344 3.332031 38.542969 C 2.988281 39.394531 3.828125 39.667969 4.632812 39.820312 C 5.9375 39.460938 3.773438 39.230469 4.761719 38.886719 C 5.304688 38.785156 3.035156 38.34375 4.925781 38.089844 C 6.867188 37.765625 8.609375 37 10.535156 36.601562 C 11.835938 36.34375 13.089844 36.167969 14.296875 36.152344 Z M 13.867188 36.589844 C 13.695312 36.535156 13.296875 36.644531 13.09375 37.179688 C 13.242188 37.519531 13.316406 37.082031 13.285156 36.964844 C 13.984375 36.859375 14.039062 36.644531 13.867188 36.589844 Z M 9.832031 37.308594 C 9.273438 37.28125 8.355469 37.402344 8.03125 37.792969 C 8.441406 37.980469 8.894531 37.273438 9.488281 37.71875 C 10.59375 37.507812 10.390625 37.335938 9.832031 37.308594 Z M 17.824219 37.410156 C 18.105469 37.363281 18.96875 37.6875 18.664062 38.230469 C 18.453125 38.289062 18.488281 37.972656 18.335938 37.921875 C 17.703125 37.597656 17.65625 37.4375 17.824219 37.410156 Z M 6.972656 38.160156 C 6.828125 38.160156 6.710938 38.226562 6.695312 38.40625 L 6.976562 38.664062 C 8.101562 38.753906 7.410156 38.160156 6.972656 38.160156 Z M 6.34375 38.675781 C 6.136719 38.644531 5.941406 38.761719 5.835938 39.152344 C 6.03125 39.105469 6.34375 39.21875 6.53125 39.359375 C 7.714844 40.167969 6.96875 38.765625 6.34375 38.675781 Z M 13.964844 38.867188 C 15.003906 38.664062 14.703125 41.355469 14.367188 42.183594 C 14.996094 41.753906 14.875 44.183594 14.671875 45.085938 C 15.015625 44.625 15.15625 45.832031 14.773438 46.6875 C 14.804688 46.546875 15.605469 46.425781 15.015625 47.4375 C 14.566406 46.445312 14.371094 49.457031 14.660156 48.105469 C 15.453125 46.828125 15.246094 48.039062 15.488281 48.601562 C 15.644531 49.773438 16.167969 50.851562 16.324219 51.886719 C 17.058594 52.625 16.011719 52.125 16.015625 53.125 C 16.253906 52.835938 17.226562 53.53125 17.21875 54.570312 C 17.296875 52.925781 17.394531 54.183594 18.195312 54.613281 C 18.867188 55.691406 19.367188 56.703125 20.367188 57.59375 C 21.148438 58.496094 20.316406 57.863281 20.65625 58.414062 C 21.484375 59.882812 23.402344 60.734375 25.0625 61.117188 C 25.789062 62.066406 26.882812 63.007812 28.363281 62.578125 C 27.109375 63.351562 31.890625 63.558594 30.273438 63.996094 C 29.433594 64.453125 28.636719 63.703125 27.816406 63.742188 C 26.675781 63.351562 24.875 62.148438 23.652344 62.964844 C 21.960938 64.023438 24.519531 61.785156 23.148438 62.785156 C 21.761719 64.449219 22.207031 61.75 20.851562 62.558594 C 20.773438 62.300781 19.648438 62.230469 20.5 61.773438 C 19.734375 61.726562 20.210938 61.675781 20.488281 61.066406 C 20.160156 61 18.335938 61.0625 17.621094 60.464844 C 16.777344 59.367188 17.769531 59.8125 18.648438 59.972656 C 17.238281 60.21875 19.132812 61.03125 20.078125 60.582031 C 19.652344 60.402344 19.167969 59.484375 18.046875 58.683594 C 16.480469 57.738281 15.1875 57.289062 13.5625 56.535156 C 11.800781 55.492188 13.957031 56.164062 14.566406 56.714844 C 16.324219 57.488281 15.632812 55.628906 14.613281 55.144531 C 13.496094 55.191406 13.210938 53.910156 12.316406 53.980469 C 13.726562 54.207031 14.707031 53.617188 13.136719 52.195312 C 11.644531 50.453125 13.761719 53.511719 12.890625 53.117188 C 12.496094 52.59375 12.792969 51.84375 11.527344 51.574219 C 11.511719 52.054688 11.355469 52.804688 11.078125 51.789062 C 10.726562 51.847656 10.324219 52.234375 10.035156 51.191406 C 10.308594 50.003906 8.859375 49.734375 8.636719 48.976562 C 9.886719 49.773438 10.453125 49.144531 9.566406 48.273438 C 8.957031 47.207031 8.871094 48.042969 8.53125 48.191406 C 7.304688 49.445312 8.417969 46.03125 7.875 47.015625 C 7.328125 47 7.640625 47.617188 7.652344 48.386719 C 5.859375 47.941406 8.085938 49.328125 8.605469 50.09375 C 7.789062 49.238281 7.925781 50.734375 7.242188 50.023438 C 7.011719 49.394531 6.976562 48.398438 5.839844 48.222656 C 7.132812 47.773438 5.070312 46.863281 5.242188 46.816406 C 5.980469 46.140625 6.078125 45.214844 6.96875 46.664062 C 5.839844 46.570312 6.9375 48.53125 7.214844 47.945312 C 7.171875 46.941406 7.675781 45.890625 5.96875 45.429688 C 5.464844 46.105469 4.601562 44.105469 5.605469 44.527344 C 5.472656 43.199219 7.164062 43.980469 7.054688 43.40625 C 7.925781 43.023438 6 41.789062 7.039062 41.296875 C 7.835938 41.78125 9.898438 40.535156 8.511719 40.363281 C 9.378906 40.355469 10.074219 40.734375 10.167969 39.855469 C 10.871094 40.007812 12.769531 40.613281 11.042969 39.660156 C 11.59375 39.386719 12.761719 39.15625 13.433594 39.144531 C 13.640625 38.984375 13.816406 38.894531 13.964844 38.867188 Z M 73.242188 39.984375 C 71.914062 39.984375 70.851562 40.28125 70.058594 40.878906 C 69.203125 41.5 68.777344 42.363281 68.777344 43.476562 C 68.777344 44.382812 69.050781 45.105469 69.597656 45.640625 C 70.101562 46.144531 71.105469 46.730469 72.609375 47.402344 C 73.648438 47.855469 74.351562 48.253906 74.710938 48.59375 C 75.039062 48.894531 75.207031 49.261719 75.207031 49.707031 C 75.207031 50.71875 74.480469 51.222656 73.027344 51.222656 C 71.304688 51.222656 70.058594 50.550781 69.285156 49.199219 C 69.109375 48.902344 68.894531 48.765625 68.648438 48.796875 C 68.402344 48.816406 68.277344 49.097656 68.277344 49.644531 C 68.277344 50.914062 68.320312 51.621094 68.402344 51.765625 C 68.535156 51.917969 69.019531 52.085938 69.855469 52.273438 C 70.824219 52.480469 71.792969 52.585938 72.761719 52.585938 C 74.214844 52.585938 75.363281 52.261719 76.203125 51.617188 C 77.042969 50.972656 77.460938 50.109375 77.460938 49.015625 C 77.460938 48.027344 77.152344 47.238281 76.539062 46.644531 C 76.066406 46.191406 75.167969 45.679688 73.847656 45.113281 C 72.589844 44.566406 71.792969 44.164062 71.453125 43.90625 C 71.070312 43.605469 70.878906 43.210938 70.878906 42.703125 C 70.878906 41.796875 71.585938 41.34375 72.996094 41.34375 C 74.242188 41.34375 75.277344 42.007812 76.089844 43.335938 C 76.203125 43.523438 76.429688 43.578125 76.769531 43.507812 C 77.085938 43.425781 77.234375 43.316406 77.203125 43.183594 C 76.945312 42.089844 76.773438 41.257812 76.691406 40.679688 C 76.660156 40.484375 76.273438 40.316406 75.53125 40.183594 C 74.839844 40.050781 74.078125 39.984375 73.242188 39.984375 Z M 60.375 40.046875 C 59.160156 40.046875 57.894531 40.394531 56.574219 41.085938 C 55.316406 41.746094 54.6875 42.324219 54.6875 42.816406 C 54.6875 43.609375 55.109375 43.964844 55.957031 43.882812 C 56.699219 43.820312 57.269531 43.390625 57.664062 42.597656 C 58.058594 41.804688 58.480469 41.40625 58.925781 41.40625 C 60.480469 41.40625 61.226562 42.253906 61.164062 43.945312 L 61.136719 44.933594 C 61.125 45.367188 60.769531 45.652344 60.070312 45.785156 C 55.988281 46.558594 53.949219 47.835938 53.949219 49.617188 C 53.949219 50.554688 54.257812 51.296875 54.875 51.84375 C 55.441406 52.335938 56.144531 52.585938 56.992188 52.585938 C 57.886719 52.585938 58.78125 52.375 59.667969 51.953125 C 60.554688 51.53125 61.042969 51.316406 61.136719 51.316406 C 61.261719 51.316406 61.476562 51.515625 61.785156 51.90625 C 62.09375 52.296875 62.449219 52.492188 62.851562 52.492188 C 63.324219 52.492188 63.957031 52.273438 64.746094 51.835938 C 65.535156 51.398438 65.929688 51.070312 65.929688 50.855469 C 65.929688 50.453125 65.777344 50.253906 65.476562 50.25 C 65.425781 50.25 65.242188 50.277344 64.921875 50.328125 C 64.601562 50.378906 64.386719 50.40625 64.273438 50.40625 C 63.699219 50.40625 63.410156 50.074219 63.421875 49.402344 L 63.484375 43.03125 C 63.503906 41.042969 62.46875 40.046875 60.375 40.046875 Z M 13.851562 40.519531 C 13.589844 40.59375 13.175781 41.992188 13.460938 42.492188 C 14.085938 43.484375 14.710938 40.050781 14.195312 41.203125 C 13.917969 42.671875 13.636719 42.058594 14.035156 40.964844 C 14.011719 40.613281 13.9375 40.496094 13.851562 40.519531 Z M 5.070312 41.820312 C 5.167969 41.816406 5.34375 41.824219 5.613281 41.851562 C 7 41.804688 6.554688 42.621094 5.765625 42.675781 C 5.746094 42.726562 5.042969 42.507812 5.335938 42.3125 C 7.238281 42.554688 4.375 41.851562 5.070312 41.820312 Z M 8.566406 42.304688 C 8.683594 42.5625 8.878906 43.050781 8.730469 43.269531 C 9.121094 43.65625 10.453125 44.34375 9.382812 43.398438 C 10.066406 43.261719 9.292969 43.046875 8.886719 42.722656 C 8.414062 42.015625 8.449219 42.046875 8.566406 42.304688 Z M 4.039062 42.339844 C 4.355469 42.328125 4.675781 42.488281 4.066406 42.863281 C 3.417969 42.539062 3.722656 42.351562 4.039062 42.339844 Z M 12.917969 43.25 C 12.898438 43.222656 12.886719 43.246094 12.910156 43.386719 C 13.144531 43.914062 12.980469 43.335938 12.917969 43.25 Z M 8.1875 43.777344 C 8.371094 44.042969 8.871094 43.925781 9.101562 44.183594 C 11.199219 45.050781 8.914062 43.621094 8.1875 43.777344 Z M 7.859375 43.941406 C 7.757812 43.964844 7.773438 44.101562 8.003906 44.417969 C 8.148438 44.742188 8.496094 44.773438 8.785156 44.847656 C 11.035156 45.882812 8.304688 43.839844 7.859375 43.941406 Z M 3.988281 44.117188 C 4.328125 44.171875 4.742188 44.355469 4.289062 44.535156 L 4.105469 44.464844 C 3.375 44.132812 3.648438 44.0625 3.988281 44.117188 Z M 7.167969 44.390625 C 7.066406 44.394531 7.152344 44.550781 7.628906 44.972656 L 7.9375 45.289062 C 9.496094 45.714844 7.476562 44.375 7.167969 44.390625 Z M 6.957031 44.808594 C 6.875 44.804688 7.601562 45.578125 7.265625 45.566406 C 6.109375 44.71875 6.582031 45.320312 7.234375 45.96875 C 7.945312 47.023438 8.53125 45.339844 7.375 45.128906 C 7.101562 44.898438 6.984375 44.808594 6.957031 44.808594 Z M 11.871094 45.910156 C 11.855469 45.957031 11.855469 46.121094 11.882812 46.476562 C 12.078125 46.652344 11.914062 45.765625 11.871094 45.910156 Z M 12.894531 46 C 12.644531 46 12.457031 47.769531 13.074219 48.140625 C 13.328125 48.871094 13.597656 48.570312 13.691406 47.742188 C 13.09375 47.753906 13.9375 46.445312 13.136719 46.703125 C 13.066406 46.195312 12.976562 46 12.894531 46 Z M 14.617188 46.039062 C 14.574219 45.941406 14.464844 46.15625 14.425781 46.882812 L 14.425781 47.089844 C 14.640625 46.554688 14.660156 46.136719 14.617188 46.039062 Z M 2.9375 46.097656 C 3.09375 46.058594 3.996094 47.882812 3.875 48.386719 C 3.324219 48.195312 3.351562 47.332031 3.09375 46.875 C 2.917969 46.332031 2.886719 46.109375 2.9375 46.097656 Z M 9.519531 46.1875 C 9.375 46.59375 9.828125 47.925781 10.105469 48.378906 C 10.808594 49.460938 10.492188 47.789062 11.265625 48.867188 C 10.839844 47.917969 11.464844 48.433594 11.375 48.03125 C 11.179688 47.625 9.28125 45.464844 10.144531 47.09375 C 10.925781 49.039062 9.652344 46.847656 9.519531 46.1875 Z M 2.566406 46.503906 C 2.777344 46.640625 3.34375 47.5625 3.449219 48.074219 C 4.339844 49.144531 3.988281 49.738281 4.910156 51.050781 C 3.722656 50.304688 3.5 48.515625 2.746094 47.363281 C 2.4375 46.621094 2.441406 46.421875 2.566406 46.503906 Z M 60.742188 46.746094 C 60.84375 46.753906 60.925781 46.78125 60.988281 46.820312 C 61.117188 46.902344 61.179688 47.070312 61.167969 47.328125 L 61.136719 49.867188 C 61.136719 50.1875 60.816406 50.460938 60.179688 50.6875 C 59.632812 50.882812 59.101562 50.980469 58.585938 50.980469 C 57.296875 50.980469 56.652344 50.390625 56.652344 49.203125 C 56.652344 48.027344 57.894531 47.21875 60.378906 46.773438 C 60.519531 46.746094 60.640625 46.738281 60.742188 46.746094 Z M 9.113281 49.863281 C 9.589844 50.011719 9.300781 51.574219 10.019531 51.785156 C 11.621094 53.875 8.910156 51.847656 8.003906 51.644531 C 8.121094 51.636719 7.199219 51.382812 7.597656 51.292969 C 7.308594 50.996094 6.660156 49.914062 8.140625 50.636719 C 9.320312 51.226562 9.417969 50.828125 8.855469 49.890625 C 8.960938 49.847656 9.046875 49.84375 9.113281 49.863281 Z M 3.707031 50.167969 C 3.746094 49.96875 4.5625 51.28125 4.710938 51.828125 C 5.160156 53.253906 6.5625 54.074219 6.703125 55.019531 C 8.257812 55.914062 7.460938 57.378906 8.765625 57.789062 C 9.34375 57.496094 9.402344 59.550781 10.636719 59.121094 C 9.949219 59.441406 10.925781 59.824219 11.269531 60.421875 C 12.046875 60.316406 13.753906 62.136719 12.054688 61.507812 C 11.339844 61.355469 10.851562 60.609375 10.34375 60.125 C 8.839844 59.171875 7.867188 57.574219 7.042969 56.046875 C 5.980469 54.441406 4.703125 52.835938 3.976562 50.957031 C 3.761719 50.46875 3.695312 50.234375 3.707031 50.167969 Z M 15.640625 51.375 C 15.5625 51.414062 15.558594 51.652344 15.789062 52.171875 L 15.925781 52.394531 C 16.113281 51.78125 15.773438 51.308594 15.640625 51.375 Z M 10.238281 53.210938 C 10.679688 53.308594 11.34375 53.542969 11.613281 53.597656 C 11.6875 53.914062 10.097656 53.867188 11.488281 54.488281 C 10.679688 54.464844 10.433594 54.40625 11.589844 55.113281 C 11.136719 55.476562 12.503906 55.765625 12.035156 56.3125 C 13.429688 57.402344 11.785156 56.589844 11.1875 56.144531 C 10.835938 55.902344 9.402344 55.414062 9.625 55.097656 C 11.316406 55.984375 10.054688 55.058594 9.308594 54.46875 C 10.671875 54.804688 8.214844 53.457031 9.515625 53.8125 C 9.902344 53.90625 8.929688 53.015625 10.203125 53.664062 C 9.578125 53.15625 9.796875 53.113281 10.238281 53.210938 Z M 18.722656 56.621094 C 18.546875 56.558594 18.722656 57.234375 19.109375 57.640625 C 19.9375 58.625 19.308594 57.082031 19.019531 56.964844 C 18.878906 56.746094 18.78125 56.640625 18.722656 56.621094 Z M 11.417969 57.589844 C 11.878906 57.59375 12.632812 57.804688 13.097656 58.050781 C 15.136719 58.503906 12.664062 59.050781 11.847656 58.425781 L 11.503906 58.351562 C 10.789062 57.785156 10.957031 57.585938 11.417969 57.589844 Z M 13.855469 57.804688 C 14.023438 57.769531 14.796875 58.085938 15.125 58.390625 C 16.101562 58.523438 16.105469 58.96875 15.027344 58.691406 C 14.835938 58.574219 14.527344 58.578125 14.425781 58.332031 C 13.871094 57.976562 13.753906 57.828125 13.855469 57.804688 Z M 15.15625 57.820312 C 15.464844 57.816406 15.96875 57.902344 16.128906 58.136719 C 18.269531 58.480469 15.992188 58.628906 15.359375 58.066406 C 14.738281 57.921875 14.847656 57.824219 15.15625 57.820312 Z M 15.15625 59.027344 C 15.386719 58.976562 16.898438 59.601562 15.8125 59.460938 L 15.496094 59.359375 C 15.144531 59.140625 15.078125 59.042969 15.15625 59.027344 Z M 22.363281 59.390625 C 22.429688 59.414062 22.5 59.476562 22.546875 59.597656 C 21.984375 59.589844 22.160156 59.320312 22.363281 59.390625 Z M 15.164062 59.976562 C 15.601562 60.019531 17.292969 60.941406 15.796875 60.519531 L 15.566406 60.429688 L 15.304688 60.308594 C 15.007812 60.046875 15.019531 59.960938 15.164062 59.976562 Z M 18.800781 62.410156 C 19.003906 62.378906 20.671875 62.527344 19.253906 62.515625 C 18.828125 62.449219 18.734375 62.421875 18.800781 62.410156 Z M 14.367188 62.65625 C 14.488281 62.683594 14.675781 62.742188 14.957031 62.84375 C 16.746094 63.949219 18.8125 64.535156 20.722656 65.386719 C 22.402344 65.605469 24.175781 66.050781 25.828125 65.695312 C 27.207031 66.386719 28.640625 65.515625 30.023438 66.140625 C 26.964844 66.738281 23.820312 66.085938 20.773438 65.660156 C 18.851562 65.417969 17.140625 64.621094 15.386719 63.863281 C 15.132812 63.742188 14.890625 63.59375 14.648438 63.453125 C 13.445312 62.785156 13.59375 62.648438 14.765625 63.304688 C 15.179688 63.632812 18.117188 64.835938 16.71875 64.042969 C 16.191406 63.910156 13.527344 62.46875 14.367188 62.65625 Z M 25.5 63.1875 C 25.636719 63.277344 25.640625 63.5625 25.636719 63.925781 C 24.714844 64.941406 25.265625 63.511719 24.695312 64.0625 C 24.167969 64.484375 24.292969 63.8125 24.578125 63.652344 C 25.09375 63.210938 25.363281 63.097656 25.5 63.1875 Z M 33.167969 63.511719 C 33.988281 63.582031 34.929688 63.773438 35.472656 63.785156 C 35.144531 64.480469 33.101562 63.839844 32.207031 64.023438 L 31.820312 64 L 31.582031 63.960938 C 31.644531 63.488281 32.347656 63.441406 33.167969 63.511719 Z M 40.230469 63.734375 C 42.355469 63.730469 40.371094 64.042969 39.394531 64.039062 C 38.285156 63.777344 39.894531 63.785156 40.230469 63.734375 Z M 27.4375 64.011719 C 27.609375 63.992188 27.664062 64.125 27.183594 64.4375 L 27.007812 64.492188 C 26.984375 64.199219 27.265625 64.03125 27.4375 64.011719 Z M 26.628906 64.136719 C 26.660156 64.183594 26.589844 64.324219 26.320312 64.609375 C 25.535156 64.660156 26.535156 63.992188 26.628906 64.136719 Z M 18.964844 64.355469 C 19.15625 64.308594 21.222656 64.902344 21.488281 64.847656 C 23.59375 65.628906 20.230469 65.101562 19.535156 64.664062 C 19.046875 64.457031 18.902344 64.371094 18.964844 64.355469 Z M 29.140625 64.457031 C 29.144531 64.507812 29.035156 64.632812 28.726562 64.855469 L 28.46875 65.023438 C 28.101562 64.769531 29.125 64.300781 29.140625 64.457031 Z M 29.140625 64.457031 "/>
</g>
</svg>
